<?xml version="1.0" standalone="no"?><!DOCTYPE svg PUBLIC "-//W3C//DTD SVG 1.1//EN" "http://www.w3.org/Graphics/SVG/1.1/DTD/svg11.dtd"><svg t="1677166806618" class="icon" viewBox="0 0 1024 1024" version="1.1" xmlns="http://www.w3.org/2000/svg" p-id="937" xmlns:xlink="http://www.w3.org/1999/xlink" width="200" height="200"><path d="M520.6 116a26.42 26.42 0 0 1 17.7 6.8L857.24 410a26.54 26.54 0 0 1 8.76 19.68v434.2a26.5 26.5 0 0 1-26.46 26.46H201.66a26.5 26.5 0 0 1-26.46-26.5v-434.2A26.54 26.54 0 0 1 184 410L502.88 122.8a26.48 26.48 0 0 1 17.72-6.8m0-64A90.18 90.18 0 0 0 460 75.24L141.14 362.4a90.48 90.48 0 0 0-30 67.24v434.2a90.46 90.46 0 0 0 90.46 90.46h637.94A90.46 90.46 0 0 0 930 863.84v-434.2a90.48 90.48 0 0 0-30-67.24L581.12 75.24A90.18 90.18 0 0 0 520.6 52z" fill="#111111" p-id="938"></path><path d="M520.74 755.52a282.58 282.58 0 0 1-132.62-33.18l-6.36-3.38a32 32 0 1 1 30-56.52l6.34 3.36a217.74 217.74 0 0 0 210.52-2.94 32 32 0 0 1 31.58 55.66 282.14 282.14 0 0 1-139.46 37z" fill="#111111" p-id="939"></path></svg>